<svg xmlns="http://www.w3.org/2000/svg" width="449" height="379" viewBox="0 0 449 379" fill="none"><path d="M353.905 0.370114L411.615 0.258603C422.915 0.244103 436.14 -0.119393 447.305 0.431607C450.655 21.8631 442.115 49.3086 429.31 66.4696C423.445 74.3316 411.105 87.8196 402.19 92.1271C399.505 94.4091 394.4 96.9976 391.19 98.6031C369.175 109.624 349.73 109.365 326.13 109.328L291.82 109.261C286.745 109.24 272.27 108.793 268.1 110.152L268.11 135.251C257.91 135.328 246.87 136.669 237.17 139.603C211.156 147.478 187.828 165.748 177.169 191.148C174.68 197.078 173.162 203.668 169.869 209.218C169.806 209.373 169.742 209.533 169.679 209.688C169.854 203.233 169.973 196.773 170.037 190.318C168.483 182.298 170.179 152.408 171.286 144.146C176.35 105.869 194.421 70.4966 222.47 43.9621C233.175 33.6856 245.99 25.3881 259.105 18.6371C290.74 2.34661 318.91 -0.290386 353.905 0.370114Z" fill="url(#paint0_linear_38_2)"></path><path d="M170.036 190.318C173.298 176.228 176.428 166.658 183.943 154.958C202.855 125.509 232.624 110.321 267.269 110.374C267.544 110.3 267.824 110.226 268.099 110.152L268.109 135.251C257.909 135.328 246.869 136.669 237.169 139.603C211.156 147.478 187.827 165.748 177.169 191.148C174.68 197.078 173.162 203.668 169.868 209.218C169.805 209.373 169.742 209.533 169.679 209.688C169.853 203.233 169.972 196.773 170.036 190.318Z" fill="#2A49B6"></path><path d="M169.679 209.688C169.742 209.533 169.805 209.373 169.868 209.218C173.162 203.668 174.68 197.078 177.169 191.148C187.827 165.748 211.156 147.478 237.169 139.603C246.869 136.669 257.909 135.328 268.109 135.251L268.019 307.408C268.002 326.833 268.531 348.779 268.25 368.617C268.174 373.987 263.795 378.265 258.425 378.301C241.173 378.416 223.919 378.443 206.668 378.393C198.311 378.393 188.013 378.638 178.842 378.512C173.885 378.444 169.873 374.583 169.767 369.627C169.663 364.74 169.745 359.742 169.745 355.058C169.739 342.133 169.805 329.213 169.942 316.293L169.679 209.688Z" fill="#4480F4"></path><path d="M0.179074 10.2597C0.185964 4.74368 4.65811 0.274919 10.1742 0.272213L164.313 0.196604C191.081 0.247104 219.275 -0.419902 245.875 0.452098C219.885 12.8896 201.513 22.4671 182.293 45.0491C168.899 60.7996 158.83 78.0166 152.774 97.8596L150 106.499L128.49 106.499L97.7425 106.454L33.202 106.436C33.202 106.436 20.4156 106.646 9.58785 106.6C4.28378 106.577 0.039014 102.31 0.0109064 97.0057C-0.0403353 87.3362 0.105536 77.3583 0.107039 67.9356L0.179074 10.2597Z" fill="#4480F4"></path><defs>
<linearGradient id="paint0_linear_38_2" x1="156.105" y1="132.793" x2="462.105" y2="28.7926" gradientUnits="userSpaceOnUse">
<stop stop-color="#4D9BF9"></stop>
<stop offset="1" stop-color="#48FCFD"></stop>
</linearGradient>
</defs></svg>