<svg width="1602" height="459" viewBox="0 0 1602 459" fill="none" xmlns="http://www.w3.org/2000/svg">
<path d="M353.905 0.370114L411.615 0.258603C422.915 0.244103 436.14 -0.119393 447.305 0.431607C450.655 21.8631 442.115 49.3086 429.31 66.4696C423.445 74.3316 411.105 87.8196 402.19 92.1271C399.505 94.4091 394.4 96.9976 391.19 98.6031C369.175 109.624 349.73 109.365 326.13 109.328L291.82 109.261C286.745 109.24 272.27 108.793 268.1 110.152L268.11 135.251C257.91 135.328 246.87 136.669 237.17 139.603C211.156 147.478 187.828 165.748 177.169 191.148C174.68 197.078 173.162 203.668 169.869 209.218C169.806 209.373 169.742 209.533 169.679 209.688C169.854 203.233 169.973 196.773 170.037 190.318C168.483 182.298 170.179 152.408 171.286 144.146C176.35 105.869 194.421 70.4966 222.47 43.9621C233.175 33.6856 245.99 25.3881 259.105 18.6371C290.74 2.34661 318.91 -0.290386 353.905 0.370114Z" fill="url(#paint0_linear_2_74)"/>
<path d="M170.037 190.318C173.298 176.228 176.428 166.658 183.943 154.958C202.856 125.509 232.625 110.321 267.27 110.374C267.545 110.3 267.825 110.226 268.1 110.152L268.11 135.251C257.91 135.328 246.87 136.669 237.17 139.603C211.156 147.478 187.828 165.748 177.169 191.148C174.68 197.078 173.162 203.668 169.869 209.218C169.806 209.373 169.742 209.533 169.679 209.688C169.854 203.233 169.973 196.773 170.037 190.318Z" fill="#2A49B6"/>
<path d="M169.679 209.688C169.742 209.533 169.806 209.373 169.869 209.218C173.162 203.668 174.68 197.078 177.169 191.148C187.828 165.748 211.156 147.478 237.17 139.603C246.87 136.669 257.91 135.328 268.11 135.251L268.02 307.408C268.002 326.833 268.531 348.779 268.25 368.617C268.174 373.987 263.795 378.265 258.425 378.301C241.173 378.416 223.919 378.443 206.668 378.393C198.311 378.393 188.013 378.638 178.842 378.512C173.885 378.444 169.873 374.583 169.767 369.627C169.663 364.74 169.745 359.742 169.745 355.058C169.74 342.133 169.805 329.213 169.943 316.293L169.679 209.688Z" fill="#4480F4"/>
<path d="M0.179074 10.2597C0.185964 4.74368 4.65811 0.274919 10.1742 0.272213L164.313 0.196604C191.081 0.247104 219.275 -0.419902 245.875 0.452098C219.885 12.8896 201.513 22.4671 182.293 45.0491C168.899 60.7996 158.83 78.0166 152.774 97.8596L150 106.499L128.49 106.499L97.7425 106.454L33.202 106.436C33.202 106.436 20.4156 106.646 9.58785 106.6C4.28378 106.577 0.039014 102.31 0.0109064 97.0057C-0.0403353 87.3362 0.105536 77.3583 0.107039 67.9356L0.179074 10.2597Z" fill="#4480F4"/>
<path d="M1502.17 381.56C1482.54 381.56 1465.26 377.72 1450.33 370.04C1435.61 362.36 1424.19 351.907 1416.09 338.68C1407.98 325.24 1403.93 309.987 1403.93 292.92C1403.93 275.64 1407.87 260.387 1415.77 247.16C1423.87 233.72 1434.86 223.267 1448.73 215.8C1462.59 208.12 1478.27 204.28 1495.77 204.28C1512.62 204.28 1527.77 207.907 1541.21 215.16C1554.86 222.2 1565.63 232.44 1573.53 245.88C1581.42 259.107 1585.37 275 1585.37 293.56C1585.37 295.48 1585.26 297.72 1585.05 300.28C1584.7 304.096 1581.49 307 1577.66 307H1444.57V277.88H1558.17L1538.97 286.52C1538.97 277.56 1537.15 269.773 1533.53 263.16C1529.9 256.547 1524.89 251.427 1518.49 247.8C1512.09 243.96 1504.62 242.04 1496.09 242.04C1487.55 242.04 1479.98 243.96 1473.37 247.8C1466.97 251.427 1461.95 256.653 1458.33 263.48C1454.7 270.093 1452.89 277.987 1452.89 287.16V294.84C1452.89 304.227 1454.91 312.547 1458.97 319.8C1463.23 326.84 1469.1 332.28 1476.57 336.12C1484.25 339.747 1493.21 341.56 1503.45 341.56C1512.62 341.56 1520.62 340.173 1527.45 337.4C1531.42 335.836 1535.19 333.83 1538.75 331.384C1543.37 328.21 1549.77 328.309 1553.57 332.431L1567.1 347.094C1570.57 350.859 1570.68 356.7 1566.85 360.107C1560.19 366.045 1552.38 370.85 1543.45 374.52C1531.5 379.213 1517.74 381.56 1502.17 381.56Z" fill="url(#paint1_linear_2_74)"/>
<path d="M1353.38 381.56C1333.11 381.56 1317.32 376.44 1306.02 366.2C1294.71 355.747 1289.06 340.28 1289.06 319.8V178.76C1289.06 173.237 1293.53 168.76 1299.06 168.76H1328.98C1334.5 168.76 1338.98 173.237 1338.98 178.76V319.16C1338.98 326.413 1340.9 332.067 1344.74 336.12C1348.58 339.96 1353.8 341.88 1360.42 341.88C1363.26 341.88 1365.94 341.604 1368.48 341.053C1375.02 339.629 1382.98 341.774 1385.37 348.03L1391.25 363.435C1392.88 367.699 1391.45 372.61 1387.35 374.627C1383.77 376.391 1379.81 377.849 1375.46 379C1368.42 380.707 1361.06 381.56 1353.38 381.56ZM1272.5 249.08C1266.97 249.08 1262.5 244.603 1262.5 239.08V220.68C1262.5 215.157 1266.97 210.68 1272.5 210.68H1371.86C1377.38 210.68 1381.86 215.157 1381.86 220.68V239.08C1381.86 244.603 1377.38 249.08 1371.86 249.08H1272.5Z" fill="url(#paint2_linear_2_74)"/>
<path d="M1196.73 379C1191.2 379 1186.73 374.523 1186.73 369V216.84C1186.73 211.317 1191.2 206.84 1196.73 206.84H1226.65C1232.17 206.84 1236.65 211.317 1236.65 216.84V369C1236.65 374.523 1232.17 379 1226.65 379H1196.73ZM1211.69 182.84C1202.51 182.84 1195.05 180.173 1189.29 174.84C1183.53 169.507 1180.65 162.893 1180.65 155C1180.65 147.107 1183.53 140.493 1189.29 135.16C1195.05 129.827 1202.51 127.16 1211.69 127.16C1220.86 127.16 1228.33 129.72 1234.09 134.84C1239.85 139.747 1242.73 146.147 1242.73 154.04C1242.73 162.36 1239.85 169.293 1234.09 174.84C1228.54 180.173 1221.07 182.84 1211.69 182.84Z" fill="url(#paint3_linear_2_74)"/>
<path d="M1100.48 379C1094.95 379 1090.48 374.523 1090.48 369V151.56C1090.48 146.037 1094.95 141.56 1100.48 141.56H1130.4C1135.92 141.56 1140.4 146.037 1140.4 151.56V369C1140.4 374.523 1135.92 379 1130.4 379H1100.48Z" fill="url(#paint4_linear_2_74)"/>
<path d="M971.3 381.56C956.793 381.56 944.1 378.36 933.22 371.96C922.34 365.56 913.807 355.853 907.62 342.84C901.647 329.613 898.66 312.973 898.66 292.92C898.66 272.653 901.54 256.013 907.3 243C913.06 229.987 921.38 220.28 932.26 213.88C943.14 207.48 956.153 204.28 971.3 204.28C987.513 204.28 1002.02 208.013 1014.82 215.48C1027.83 222.733 1038.07 232.973 1045.54 246.2C1053.22 259.427 1057.06 275 1057.06 292.92C1057.06 311.053 1053.22 326.733 1045.54 339.96C1038.07 353.187 1027.83 363.427 1014.82 370.68C1002.02 377.933 987.513 381.56 971.3 381.56ZM879.54 441.08C874.017 441.08 869.54 436.603 869.54 431.08V216.84C869.54 211.317 874.017 206.84 879.54 206.84H907.22C912.743 206.84 917.22 211.317 917.22 216.84V242.04L916.26 293.24L919.46 344.12V431.08C919.46 436.603 914.983 441.08 909.46 441.08H879.54ZM962.66 340.6C970.98 340.6 978.34 338.68 984.74 334.84C991.353 331 996.58 325.56 1000.42 318.52C1004.47 311.267 1006.5 302.733 1006.5 292.92C1006.5 282.893 1004.47 274.36 1000.42 267.32C996.58 260.28 991.353 254.84 984.74 251C978.34 247.16 970.98 245.24 962.66 245.24C954.34 245.24 946.873 247.16 940.26 251C933.647 254.84 928.42 260.28 924.58 267.32C920.74 274.36 918.82 282.893 918.82 292.92C918.82 302.733 920.74 311.267 924.58 318.52C928.42 325.56 933.647 331 940.26 334.84C946.873 338.68 954.34 340.6 962.66 340.6Z" fill="#4480F4"/>
<path d="M754.395 204.28C768.048 204.28 780.102 207.053 790.555 212.6C801.222 217.933 809.542 226.253 815.515 237.56C821.702 248.653 824.795 262.947 824.795 280.44V369C824.795 374.523 820.318 379 814.795 379H784.875C779.352 379 774.875 374.523 774.875 369V288.12C774.875 274.253 771.995 264.013 766.235 257.4C760.475 250.787 752.368 247.48 741.915 247.48C734.662 247.48 728.155 249.187 722.395 252.6C716.635 255.8 712.155 260.707 708.955 267.32C705.755 273.933 704.155 282.36 704.155 292.6V369C704.155 374.523 699.678 379 694.155 379H664.235C658.712 379 654.235 374.523 654.235 369V288.12C654.235 274.253 651.355 264.013 645.595 257.4C640.048 250.787 632.048 247.48 621.595 247.48C614.342 247.48 607.835 249.187 602.075 252.6C596.315 255.8 591.835 260.707 588.635 267.32C585.435 273.933 583.835 282.36 583.835 292.6V369C583.835 374.523 579.358 379 573.835 379H543.915C538.392 379 533.915 374.523 533.915 369V216.84C533.915 211.317 538.392 206.84 543.915 206.84H571.595C577.118 206.84 581.595 211.317 581.595 216.84V253.88L572.635 240.12C578.608 228.387 587.035 219.533 597.915 213.56C609.008 207.373 621.595 204.28 635.675 204.28C651.462 204.28 665.222 208.333 676.955 216.44C688.902 224.333 696.795 236.493 700.635 252.92L683.035 248.12C688.795 234.68 697.968 224.013 710.555 216.12C723.355 208.227 737.968 204.28 754.395 204.28Z" fill="#4480F4"/>
<path d="M417.48 381.56C397.853 381.56 380.573 377.72 365.64 370.04C350.92 362.36 339.507 351.907 331.4 338.68C323.293 325.24 319.24 309.987 319.24 292.92C319.24 275.64 323.187 260.387 331.08 247.16C339.187 233.72 350.173 223.267 364.04 215.8C377.907 208.12 393.587 204.28 411.08 204.28C427.933 204.28 443.08 207.907 456.52 215.16C470.173 222.2 480.947 232.44 488.84 245.88C496.733 259.107 500.68 275 500.68 293.56C500.68 295.48 500.573 297.72 500.36 300.28C500.013 304.096 496.802 307 492.97 307H359.88V277.88H473.48L454.28 286.52C454.28 277.56 452.467 269.773 448.84 263.16C445.213 256.547 440.2 251.427 433.8 247.8C427.4 243.96 419.933 242.04 411.4 242.04C402.867 242.04 395.293 243.96 388.68 247.8C382.28 251.427 377.267 256.653 373.64 263.48C370.013 270.093 368.2 277.987 368.2 287.16V294.84C368.2 304.227 370.227 312.547 374.28 319.8C378.547 326.84 384.413 332.28 391.88 336.12C399.56 339.747 408.52 341.56 418.76 341.56C427.933 341.56 435.933 340.173 442.76 337.4C446.731 335.836 450.498 333.83 454.061 331.384C458.684 328.21 465.086 328.309 468.887 332.432L482.409 347.094C485.882 350.859 485.993 356.7 482.167 360.107C475.499 366.045 467.696 370.85 458.76 374.52C446.813 379.213 433.053 381.56 417.48 381.56Z" fill="#4480F4"/>
<defs>
<linearGradient id="paint0_linear_2_74" x1="156.105" y1="132.793" x2="462.105" y2="28.7926" gradientUnits="userSpaceOnUse">
<stop stop-color="#4D9BF9"/>
<stop offset="1" stop-color="#48FCFD"/>
</linearGradient>
<linearGradient id="paint1_linear_2_74" x1="1066.84" y1="288.212" x2="1552.94" y2="46.4904" gradientUnits="userSpaceOnUse">
<stop stop-color="#4D9BF9"/>
<stop offset="1" stop-color="#48FCFD"/>
</linearGradient>
<linearGradient id="paint2_linear_2_74" x1="1066.84" y1="288.212" x2="1552.94" y2="46.4904" gradientUnits="userSpaceOnUse">
<stop stop-color="#4D9BF9"/>
<stop offset="1" stop-color="#48FCFD"/>
</linearGradient>
<linearGradient id="paint3_linear_2_74" x1="1066.84" y1="288.212" x2="1552.94" y2="46.4904" gradientUnits="userSpaceOnUse">
<stop stop-color="#4D9BF9"/>
<stop offset="1" stop-color="#48FCFD"/>
</linearGradient>
<linearGradient id="paint4_linear_2_74" x1="1066.84" y1="288.212" x2="1552.94" y2="46.4904" gradientUnits="userSpaceOnUse">
<stop stop-color="#4D9BF9"/>
<stop offset="1" stop-color="#48FCFD"/>
</linearGradient>
</defs>
</svg>
